<svg width="30" height="31" viewBox="0 0 30 31" fill="none" xmlns="http://www.w3.org/2000/svg">
<path d="M4.97284 15.4902C4.97284 12.9841 4.97414 11.1708 5.1466 9.77783C5.31692 8.40218 5.64448 7.53559 6.22725 6.87346C6.36836 6.71314 6.51953 6.56196 6.67986 6.42085C7.34211 5.83797 8.20807 5.51048 9.58199 5.34019C10.9733 5.16774 12.7842 5.16645 15.2872 5.16645C17.7902 5.16645 19.6011 5.16774 20.9925 5.34019C22.3664 5.51048 23.2323 5.83797 23.8946 6.42085C24.0549 6.56196 24.2061 6.71314 24.3472 6.87346L24.8784 6.40592L24.3472 6.87346C24.93 7.53559 25.2575 8.40218 25.4278 9.77783C25.6003 11.1708 25.6016 12.9841 25.6016 15.4902C25.6016 17.9963 25.6003 19.8096 25.4278 21.2025C25.2575 22.5782 24.93 23.4448 24.3472 24.1069C24.2061 24.2672 24.0549 24.4184 23.8946 24.5595C23.2323 25.1424 22.3664 25.4699 20.9925 25.6402C19.6011 25.8126 17.7902 25.8139 15.2872 25.8139C12.7842 25.8139 10.9733 25.8126 9.58199 25.6402C8.20807 25.4699 7.34211 25.1424 6.67986 24.5595L6.21231 25.0907L6.67986 24.5595C6.51953 24.4184 6.36836 24.2672 6.22725 24.1069C5.64448 23.4448 5.31692 22.5782 5.1466 21.2025C4.97414 19.8096 4.97284 17.9963 4.97284 15.4902Z" stroke="#DFDFDF" stroke-width="1.43739"/>
<path d="M15.2872 10.5825L15.2872 20.398" stroke="#DFDFDF" stroke-width="1.43739" stroke-linejoin="round"/>
<path d="M20.1908 15.4902L10.3836 15.4902" stroke="#DFDFDF" stroke-width="1.43739" stroke-linejoin="round"/>
</svg>