<svg width="20" height="20" viewBox="0 0 20 20" fill="none" xmlns="http://www.w3.org/2000/svg">
<path d="M15.9104 14.7087V7.008C15.9104 5.86954 15.9104 5.30031 15.6372 4.89141C15.5189 4.71439 15.3669 4.5624 15.1899 4.44412C15.0483 4.3495 14.8875 4.28765 14.6904 4.24722C14.0868 4.12336 13.785 4.06143 13.3451 4.22823C12.9052 4.39503 12.637 4.75264 12.1006 5.46786L11.8574 5.7921H8.61502L8.37184 5.46786C7.83542 4.75264 7.56722 4.39503 7.12735 4.22823C6.68749 4.06143 6.38567 4.12336 5.78202 4.24722C5.58497 4.28765 5.42413 4.3495 5.28252 4.44412C5.1055 4.5624 4.95351 4.71439 4.83523 4.89141C4.56201 5.30031 4.56201 5.86954 4.56201 7.008V14.7087C4.56201 16.2372 4.56201 17.0014 5.03685 17.4763C5.51169 17.9511 6.27593 17.9511 7.80442 17.9511H12.668C14.1965 17.9511 14.9608 17.9511 15.4356 17.4763C15.9104 17.0014 15.9104 16.2372 15.9104 14.7087Z" fill="#7E869E" fill-opacity="0.25"/>
<path d="M13.0733 4.1709C14.2118 4.1709 14.781 4.1709 15.1899 4.44412C15.3669 4.5624 15.5189 4.71439 15.6372 4.89141C15.9104 5.30031 15.9104 5.86954 15.9104 7.008V14.7087C15.9104 16.2372 15.9104 17.0014 15.4356 17.4763C14.9608 17.9511 14.1965 17.9511 12.668 17.9511H7.80442C6.27593 17.9511 5.51169 17.9511 5.03685 17.4763C4.56201 17.0014 4.56201 16.2372 4.56201 14.7087V7.008C4.56201 5.86954 4.56201 5.30031 4.83523 4.89141C4.95351 4.71439 5.1055 4.5624 5.28252 4.44412C5.69143 4.1709 6.26066 4.1709 7.39912 4.1709" stroke="white" stroke-width="0.972722"/>
<path d="M7.8042 4.17101C7.8042 3.27564 8.53004 2.5498 9.4254 2.5498H11.0466C11.942 2.5498 12.6678 3.27564 12.6678 4.17101C12.6678 5.06637 11.942 5.79221 11.0466 5.79221H9.4254C8.53004 5.79221 7.8042 5.06637 7.8042 4.17101Z" stroke="white" stroke-width="0.972722"/>
<path d="M7.8042 9.84521L12.6678 9.84522" stroke="white" stroke-width="0.972722" stroke-linecap="round"/>
<path d="M7.8042 13.0874L11.0466 13.0874" stroke="white" stroke-width="0.972722" stroke-linecap="round"/>
</svg>