<svg width="20" height="20" viewBox="0 0 20 20" fill="none" xmlns="http://www.w3.org/2000/svg">
<path d="M4.04321 11.3919L9.67901 16.6861L9.67902 16.6861C9.8202 16.8187 9.89079 16.8851 9.96756 16.9187C10.092 16.9732 10.2335 16.9732 10.3579 16.9187C10.4346 16.8851 10.5052 16.8187 10.6464 16.6861L16.2822 11.3919C17.8679 9.9023 18.0604 7.45105 16.7268 5.73215L16.476 5.40894C14.8806 3.35264 11.6782 3.69749 10.5572 6.04632C10.3988 6.37811 9.92657 6.37811 9.76822 6.04632C8.64718 3.69749 5.44478 3.35264 3.84938 5.40894L3.59861 5.73215C2.26498 7.45105 2.45753 9.9023 4.04321 11.3919Z" fill="#7E869E" fill-opacity="0.25" stroke="white" stroke-width="1.36181"/>
</svg>