<svg width="30" height="31" viewBox="0 0 30 31" fill="none" xmlns="http://www.w3.org/2000/svg">
<rect x="18.3854" y="15.49" width="7.355" height="4.90333" fill="#7E869E" fill-opacity="0.25"/>
<path d="M17.466 5.68335H11.9498C8.04921 5.68335 6.09892 5.68335 4.88717 6.91434C3.67542 8.14533 3.67542 10.1266 3.67542 14.0891V16.891C3.67542 20.8535 3.67542 22.8347 4.88717 24.0657C6.09892 25.2967 8.04921 25.2967 11.9498 25.2967H17.466C21.3666 25.2967 23.3169 25.2967 24.5287 24.0657C25.7404 22.8347 25.7404 20.8535 25.7404 16.891V14.0891C25.7404 10.1266 25.7404 8.14533 24.5287 6.91434C23.3169 5.68335 21.3666 5.68335 17.466 5.68335Z" stroke="#DFDFDF" stroke-width="1.2"/>
<path d="M8.57874 10.5867H12.2562" stroke="#DFDFDF" stroke-width="1.2" stroke-linecap="round"/>
<path d="M18.3855 18.3933V17.49C18.3855 16.5472 18.3855 16.0758 18.6784 15.7829C18.9713 15.49 19.4427 15.49 20.3855 15.49H23.7405C24.6833 15.49 25.1547 15.49 25.4476 15.7829C25.7405 16.0758 25.7405 16.5472 25.7405 17.49V18.3933C25.7405 19.3361 25.7405 19.8075 25.4476 20.1004C25.1547 20.3933 24.6833 20.3933 23.7405 20.3933H20.3855C19.4427 20.3933 18.9713 20.3933 18.6784 20.1004C18.3855 19.8075 18.3855 19.3361 18.3855 18.3933V18.3933Z" stroke="#DFDFDF" stroke-width="1.2"/>
</svg>